<svg width="125" height="113" viewBox="0 0 125 113" fill="none" xmlns="http://www.w3.org/2000/svg">
<path d="M27.0906 9.86875L19.1594 1.88125C0.625 20.2919 0.625 33.6344 0.625 50.875H6.25L11.875 50.5206C11.875 34.0506 11.875 24.9775 27.0906 9.86875ZM105.835 1.88125L97.915 9.86875C113.125 24.9775 113.125 34.0506 113.125 50.875L124.375 50.5206C124.375 33.6344 124.375 20.2919 105.835 1.88125ZM62.5 112.75C65.9836 112.754 69.3819 111.673 72.2228 109.657C75.0636 107.641 77.2057 104.79 78.3512 101.5H46.6488C47.7943 104.79 49.9364 107.641 52.7772 109.657C55.6181 111.673 59.0164 112.754 62.5 112.75ZM101.875 71.0462V45.25C101.875 27.1544 89.5844 11.9106 72.9344 7.32625C71.2862 3.175 67.2588 0.25 62.5 0.25C57.7412 0.25 53.7138 3.175 52.0656 7.32625C35.41 11.9106 23.125 27.1544 23.125 45.25V71.0462L13.5231 80.6481C12.9998 81.1696 12.5847 81.7894 12.3018 82.4719C12.019 83.1545 11.8739 83.8862 11.875 84.625V90.25C11.875 91.7418 12.4676 93.1726 13.5225 94.2275C14.5774 95.2824 16.0082 95.875 17.5 95.875H107.5C108.992 95.875 110.423 95.2824 111.477 94.2275C112.532 93.1726 113.125 91.7418 113.125 90.25V84.625C113.126 83.8862 112.981 83.1545 112.698 82.4719C112.415 81.7894 112 81.1696 111.477 80.6481L101.875 71.0462Z" fill="#2B1448"/>
</svg>
