<svg width="80" height="80" viewBox="0 0 80 80" fill="none" xmlns="http://www.w3.org/2000/svg">
<path d="M40 0C17.88 0 0 17.88 0 40C0 62.12 17.88 80 40 80C62.12 80 80 62.12 80 40C80 17.88 62.12 0 40 0ZM58.828 53.172C60.392 54.736 60.392 57.264 58.828 58.828C58.048 59.608 57.024 60 56 60C54.976 60 53.952 59.608 53.172 58.828L40 45.656L26.828 58.828C26.048 59.608 25.024 60 24 60C22.976 60 21.952 59.608 21.172 58.828C19.608 57.264 19.608 54.736 21.172 53.172L34.344 40L21.172 26.828C19.608 25.264 19.608 22.736 21.172 21.172C22.736 19.608 25.264 19.608 26.828 21.172L40 34.344L53.172 21.172C54.736 19.608 57.264 19.608 58.828 21.172C60.392 22.736 60.392 25.264 58.828 26.828L45.656 40L58.828 53.172Z" fill="#131E26"/>
</svg>
