<svg width="1530" height="106" viewBox="0 0 1530 106" fill="none" xmlns="http://www.w3.org/2000/svg">
<path fill-rule="evenodd" clip-rule="evenodd" d="M-1 52.8073L50.0333 58.9745C101.067 64.7564 203.133 76.7055 305.2 76.7055C407.267 76.7055 509.333 64.7564 611.4 50.1091C713.467 35.0764 815.533 17.7309 917.6 17.7309C1019.67 17.7309 1121.73 35.0764 1223.8 35.0764C1325.87 35.0764 1427.93 17.7309 1478.97 8.86545L1530 0V106H1478.97C1427.93 106 1325.87 106 1223.8 106C1121.73 106 1019.67 106 917.6 106C815.533 106 713.467 106 611.4 106C509.333 106 407.267 106 305.2 106C203.133 106 101.067 106 50.0333 106H-1V52.8073Z" fill="#D7CCE9"/>
<path fill-rule="evenodd" clip-rule="evenodd" d="M-1 32.1726L42.0281 36.1995C84.0556 40.2264 169.111 48.5487 254.167 50.4279C339.222 52.5756 424.278 48.5487 509.333 42.3741C594.389 36.1995 679.444 27.8773 764.5 34.0518C849.556 40.2264 934.611 60.8979 1019.67 62.7771C1104.72 64.9248 1189.78 48.5487 1274.83 50.4279C1359.89 52.5756 1444.94 73.247 1487.97 83.4485L1530 93.65V105.999H1487.97C1444.94 105.999 1359.89 105.999 1274.83 105.999C1189.78 105.999 1104.72 105.999 1019.67 105.999C934.611 105.999 849.556 105.999 764.5 105.999C679.444 105.999 594.389 105.999 509.333 105.999C424.278 105.999 339.222 105.999 254.167 105.999C169.111 105.999 84.0556 105.999 42.0281 105.999H-1V32.1726Z" fill="#170704"/>
<path fill-rule="evenodd" clip-rule="evenodd" d="M-1 85.2435L63.0418 86.4467C127.084 87.65 254.167 89.9061 382.25 81.7841C509.333 73.8124 637.417 55.3122 764.5 54.2593C892.584 53.056 1019.67 69.1497 1147.75 74.8653C1274.83 80.7312 1402.92 76.0685 1465.96 73.8124L1530 71.5563V106H1465.96C1402.92 106 1274.83 106 1147.75 106C1019.67 106 892.584 106 764.5 106C637.417 106 509.333 106 382.25 106C254.167 106 127.084 106 63.0418 106H-1V85.2435Z" fill="#D9D9D9"/>
</svg>
