<svg width="56" height="72" viewBox="0 0 56 72" fill="none" xmlns="http://www.w3.org/2000/svg">
<path d="M4 64C4 68.4 7.6 72 12 72H44C48.4 72 52 68.4 52 64V24C52 19.6 48.4 16 44 16H12C7.6 16 4 19.6 4 24V64ZM16.68 32.68C18.24 31.12 20.76 31.12 22.32 32.68L28 38.36L33.68 32.68C35.24 31.12 37.76 31.12 39.32 32.68C40.88 34.24 40.88 36.76 39.32 38.32L33.64 44L39.32 49.68C40.88 51.24 40.88 53.76 39.32 55.32C37.76 56.88 35.24 56.88 33.68 55.32L28 49.64L22.32 55.32C20.76 56.88 18.24 56.88 16.68 55.32C15.12 53.76 15.12 51.24 16.68 49.68L22.36 44L16.68 38.32C15.12 36.8 15.12 34.24 16.68 32.68ZM42 4L39.16 1.16C38.44 0.44 37.4 0 36.36 0H19.64C18.6 0 17.56 0.44 16.84 1.16L14 4H4C1.8 4 0 5.8 0 8C0 10.2 1.8 12 4 12H52C54.2 12 56 10.2 56 8C56 5.8 54.2 4 52 4H42Z" fill="#131E26"/>
</svg>
